{
  "accessors": [
    {
      "bufferView": 2,
      "componentType": 5126,
      "count": 65532,
      "max": [
        1.7603172063827515,
        5.8933796882629395,
        5.818420886993408
      ],
      "min": [
        -4.85292911529541,
        -7.401887893676758,
        -0.23756283521652222
      ],
      "type": "VEC3"
    },
    {
      "bufferView": 2,
      "byteOffset": 786384,
      "componentType": 5126,
      "count": 65532,
      "max": [
        0.9999880790710449,
        0.9999217987060547,
        0.9999935626983643
      ],
      "min": [
        -0.9999395608901978,
        -0.9999831914901733,
        -0.9999973773956299
      ],
      "type": "VEC3"
    },
    {
      "bufferView": 1,
      "componentType": 5126,
      "count": 65532,
      "max": [
        0.9989529252052307,
        0.9988918900489807
      ],
      "min": [
        0.0009896906558424234,
        0.0009916265262290835
      ],
      "type": "VEC2"
    },
    {
      "bufferView": 0,
      "componentType": 5125,
      "count": 292677,
      "type": "SCALAR"
    },
    {
      "bufferView": 2,
      "byteOffset": 1572768,
      "componentType": 5126,
      "count": 31135,
      "max": [
        1.7392293214797974,
        5.8492960929870605,
        5.5071306228637695
      ],
      "min": [
        -4.849857330322266,
        -7.324459075927734,
        -0.10644213110208511
      ],
      "type": "VEC3"
    },
    {
      "bufferView": 2,
      "byteOffset": 1946388,
      "componentType": 5126,
      "count": 31135,
      "max": [
        0.999894380569458,
        0.9999459981918335,
        0.999961256980896
      ],
      "min": [
        -0.9998751878738403,
        -0.9999145269393921,
        -0.9999071359634399
      ],
      "type": "VEC3"
    },
    {
      "bufferView": 1,
      "byteOffset": 524256,
      "componentType": 5126,
      "count": 31135,
      "max": [
        0.9982885122299194,
        0.9979034662246704
      ],
      "min": [
        0.001163484062999487,
        0.0010270756902173162
      ],
      "type": "VEC2"
    },
    {
      "bufferView": 0,
      "byteOffset": 1170708,
      "componentType": 5125,
      "count": 123381,
      "type": "SCALAR"
    },
    {
      "bufferView": 2,
      "byteOffset": 2320008,
      "componentType": 5126,
      "count": 65532,
      "max": [
        5.242964267730713,
        5.960202693939209,
        4.141790866851807
      ],
      "min": [
        -2.287545680999756,
        -8.095245361328125,
        -2.8690900802612305
      ],
      "type": "VEC3"
    },
    {
      "bufferView": 2,
      "byteOffset": 3106392,
      "componentType": 5126,
      "count": 65532,
      "max": [
        0.9998912811279297,
        0.999941349029541,
        0.9999780654907227
      ],
      "min": [
        -0.9998898506164551,
        -0.9999645948410034,
        -0.9999663829803467
      ],
      "type": "VEC3"
    },
    {
      "bufferView": 1,
      "byteOffset": 773336,
      "componentType": 5126,
      "count": 65532,
      "max": [
        0.9988239407539368,
        0.9970995187759399
      ],
      "min": [
        0.0011463927803561091,
        0.001145186834037304
      ],
      "type": "VEC2"
    },
    {
      "bufferView": 0,
      "byteOffset": 1664232,
      "componentType": 5125,
      "count": 353778,
      "type": "SCALAR"
    },
    {
      "bufferView": 2,
      "byteOffset": 3892776,
      "componentType": 5126,
      "count": 33739,
      "max": [
        4.448830604553223,
        1.3361921310424805,
        4.059722900390625
      ],
      "min": [
        -5.487522602081299,
        -7.702739238739014,
        -2.073148727416992
      ],
      "type": "VEC3"
    },
    {
      "bufferView": 2,
      "byteOffset": 4297644,
      "componentType": 5126,
      "count": 33739,
      "max": [
        0.9999988079071045,
        0.9998670816421509,
        0.9999308586120605
      ],
      "min": [
        -0.999980092048645,
        -0.9997857809066772,
        -0.9999269247055054
      ],
      "type": "VEC3"
    },
    {
      "bufferView": 1,
      "byteOffset": 1297592,
      "componentType": 5126,
      "count": 33739,
      "max": [
        0.9968569874763489,
        0.9483913779258728
      ],
      "min": [
        0.0016257722163572907,
        0.0011451031314209104
      ],
      "type": "VEC2"
    },
    {
      "bufferView": 0,
      "byteOffset": 3079344,
      "componentType": 5125,
      "count": 183816,
      "type": "SCALAR"
    },
    {
      "bufferView": 2,
      "byteOffset": 4702512,
      "componentType": 5126,
      "count": 16317,
      "max": [
        0.1327831745147705,
        5.353503704071045,
        3.1564011573791504
      ],
      "min": [
        -2.043259620666504,
        2.968844413757324,
        -0.8297392129898071
      ],
      "type": "VEC3"
    },
    {
      "bufferView": 2,
      "byteOffset": 4898316,
      "componentType": 5126,
      "count": 16317,
      "max": [
        0.9999597072601318,
        0.9999215602874756,
        0.9998072385787964
      ],
      "min": [
        -0.9999997019767761,
        -0.9998352527618408,
        -0.9996531009674072
      ],
      "type": "VEC3"
    },
    {
      "bufferView": 1,
      "byteOffset": 1567504,
      "componentType": 5126,
      "count": 16317,
      "max": [
        0.9940170645713806,
        0.9975677132606506
      ],
      "min": [
        0.00467273686081171,
        0.004564024042338133
      ],
      "type": "VEC2"
    },
    {
      "bufferView": 0,
      "byteOffset": 3814608,
      "componentType": 5125,
      "count": 79626,
      "type": "SCALAR"
    },
    {
      "bufferView": 2,
      "byteOffset": 5094120,
      "componentType": 5126,
      "count": 12295,
      "max": [
        1.4867489337921143,
        1.9524450302124023,
        4.832521438598633
      ],
      "min": [
        -0.9238381385803223,
        -1.6059563159942627,
        -1.6369606256484985
      ],
      "type": "VEC3"
    },
    {
      "bufferView": 2,
      "byteOffset": 5241660,
      "componentType": 5126,
      "count": 12295,
      "max": [
        0.9999637603759766,
        0.9999369382858276,
        0.9998626708984375
      ],
      "min": [
        -0.9999561309814453,
        -0.9995803833007813,
        -0.9999687671661377
      ],
      "type": "VEC3"
    },
    {
      "bufferView": 1,
      "byteOffset": 1698040,
      "componentType": 5126,
      "count": 12295,
      "max": [
        0.9947568774223328,
        0.9940841197967529
      ],
      "min": [
        0.005043079145252705,
        0.005062056705355644
      ],
      "type": "VEC2"
    },
    {
      "bufferView": 0,
      "byteOffset": 4133112,
      "componentType": 5125,
      "count": 64062,
      "type": "SCALAR"
    },
    {
      "bufferView": 2,
      "byteOffset": 5389200,
      "componentType": 5126,
      "count": 16904,
      "max": [
        5.294246196746826,
        6.011314868927002,
        4.669815540313721
      ],
      "min": [
        -5.357818126678467,
        -7.5619354248046875,
        -7.657464504241943
      ],
      "type": "VEC3"
    },
    {
      "bufferView": 2,
      "byteOffset": 5592048,
      "componentType": 5126,
      "count": 16904,
      "max": [
        0.9999318718910217,
        0.9999678134918213,
        0.9999757409095764
      ],
      "min": [
        -0.9999938607215881,
        -0.9999811053276062,
        -0.999972403049469
      ],
      "type": "VEC3"
    },
    {
      "bufferView": 1,
      "byteOffset": 1796400,
      "componentType": 5126,
      "count": 16904,
      "max": [
        0.9970995783805847,
        0.9973220229148865
      ],
      "min": [
        0.0026802278589457273,
        0.0026801980566233397
      ],
      "type": "VEC2"
    },
    {
      "bufferView": 0,
      "byteOffset": 4389360,
      "componentType": 5125,
      "count": 77253,
      "type": "SCALAR"
    }
  ],
  "asset": {
    "extras": {
      "author": "Conrad Justin (https://sketchfab.com/ConradJustin)",
      "license": "SKETCHFAB Standard (https://sketchfab.com/licenses)",
      "source": "https://sketchfab.com/3d-models/this-tree-is-growing-60a1b5a73e184c8db7aa6007cd9d3462",
      "title": "This tree is growing"
    },
    "generator": "Sketchfab-15.49.0",
    "version": "2.0"
  },
  "bufferViews": [
    {
      "buffer": 0,
      "byteLength": 4698372,
      "name": "floatBufferViews",
      "target": 34963
    },
    {
      "buffer": 0,
      "byteLength": 1931632,
      "byteOffset": 4698372,
      "byteStride": 8,
      "name": "floatBufferViews",
      "target": 34962
    },
    {
      "buffer": 0,
      "byteLength": 5794896,
      "byteOffset": 6630004,
      "byteStride": 12,
      "name": "floatBufferViews",
      "target": 34962
    }
  ],
  "buffers": [
    {
      "byteLength": 12424900,
      "uri": "scene.bin"
    }
  ],
  "extensionsUsed": [
    "KHR_materials_specular"
  ],
  "images": [
    {
      "uri": "textures/baked_flowers_baseColor.jpeg"
    },
    {
      "uri": "textures/baked_flowers_emissive.jpeg"
    },
    {
      "uri": "textures/baked_rope_baseColor.jpeg"
    },
    {
      "uri": "textures/baked_oreada_baseColor.jpeg"
    },
    {
      "uri": "textures/baked_tree_baseColor.jpeg"
    },
    {
      "uri": "textures/baked_rocks_baseColor.jpeg"
    }
  ],
  "materials": [
    {
      "doubleSided": true,
      "emissiveTexture": {
        "index": 1
      },
      "name": "baked_flowers",
      "pbrMetallicRoughness": {
        "baseColorTexture": {
          "index": 0
        },
        "metallicFactor": 0.0,
        "roughnessFactor": 0.8040408205773457
      }
    },
    {
      "doubleSided": true,
      "name": "baked_rope",
      "pbrMetallicRoughness": {
        "baseColorFactor": [
          0.7162872726524089,
          0.7162872726524089,
          0.7162872726524089,
          1.0
        ],
        "baseColorTexture": {
          "index": 2
        },
        "metallicFactor": 0.0,
        "roughnessFactor": 0.8040408205773457
      }
    },
    {
      "doubleSided": true,
      "extensions": {
        "KHR_materials_specular": {
          "specularColorFactor": [
            1.0,
            1.0,
            1.0
          ],
          "specularFactor": 0.12888956680902988
        }
      },
      "name": "baked_oreada",
      "pbrMetallicRoughness": {
        "baseColorFactor": [
          0.9536044927550029,
          0.9536044927550029,
          0.9536044927550029,
          1.0
        ],
        "baseColorTexture": {
          "index": 3
        },
        "metallicFactor": 0.0,
        "roughnessFactor": 0.8732458816351434
      }
    },
    {
      "doubleSided": true,
      "extensions": {
        "KHR_materials_specular": {
          "specularColorFactor": [
            1.0,
            1.0,
            1.0
          ],
          "specularFactor": 0.1349908480780964
        }
      },
      "name": "baked_tree",
      "pbrMetallicRoughness": {
        "baseColorTexture": {
          "index": 4
        },
        "metallicFactor": 0.0,
        "roughnessFactor": 0.9647651006711409
      }
    },
    {
      "doubleSided": true,
      "extensions": {
        "KHR_materials_specular": {
          "specularColorFactor": [
            1.0,
            1.0,
            1.0
          ],
          "specularFactor": 0.09838316046369737
        }
      },
      "name": "baked_rocks",
      "pbrMetallicRoughness": {
        "baseColorTexture": {
          "index": 5
        },
        "metallicFactor": 0.0,
        "roughnessFactor": 0.8976510067114094
      }
    }
  ],
  "meshes": [
    {
      "name": "foliage_baked_flowers_0",
      "primitives": [
        {
          "attributes": {
            "NORMAL": 1,
            "POSITION": 0,
            "TEXCOORD_0": 2
          },
          "indices": 3,
          "material": 0,
          "mode": 4
        }
      ]
    },
    {
      "name": "foliage_baked_flowers_0",
      "primitives": [
        {
          "attributes": {
            "NORMAL": 5,
            "POSITION": 4,
            "TEXCOORD_0": 6
          },
          "indices": 7,
          "material": 0,
          "mode": 4
        }
      ]
    },
    {
      "name": "ropes_baked_rope_0",
      "primitives": [
        {
          "attributes": {
            "NORMAL": 9,
            "POSITION": 8,
            "TEXCOORD_0": 10
          },
          "indices": 11,
          "material": 1,
          "mode": 4
        }
      ]
    },
    {
      "name": "ropes_baked_rope_0",
      "primitives": [
        {
          "attributes": {
            "NORMAL": 13,
            "POSITION": 12,
            "TEXCOORD_0": 14
          },
          "indices": 15,
          "material": 1,
          "mode": 4
        }
      ]
    },
    {
      "name": "oreada_baked_oreada_0",
      "primitives": [
        {
          "attributes": {
            "NORMAL": 17,
            "POSITION": 16,
            "TEXCOORD_0": 18
          },
          "indices": 19,
          "material": 2,
          "mode": 4
        }
      ]
    },
    {
      "name": "tree_baked_tree_0",
      "primitives": [
        {
          "attributes": {
            "NORMAL": 21,
            "POSITION": 20,
            "TEXCOORD_0": 22
          },
          "indices": 23,
          "material": 3,
          "mode": 4
        }
      ]
    },
    {
      "name": "rocks_baked_rocks_0",
      "primitives": [
        {
          "attributes": {
            "NORMAL": 25,
            "POSITION": 24,
            "TEXCOORD_0": 26
          },
          "indices": 27,
          "material": 4,
          "mode": 4
        }
      ]
    }
  ],
  "nodes": [
    {
      "children": [
        1
      ],
      "matrix": [
        -0.3710714876651764,
        1.0511599343913018e-16,
        2.3340439234493844e-32,
        0.0,
        0.0,
        8.239442187755772e-17,
        -0.3710714876651764,
        0.0,
        -1.0511599343913018e-16,
        -0.3710714876651764,
        -8.239442187755772e-17,
        0.0,
        0.0,
        0.0,
        0.0,
        1.0
      ],
      "name": "Sketchfab_model"
    },
    {
      "children": [
        2
      ],
      "matrix": [
        0.009999999776482582,
        0.0,
        0.0,
        0.0,
        0.0,
        -0.009999999776482582,
        0.0,
        0.0,
        0.0,
        0.0,
        -0.009999999776482582,
        0.0,
        0.0,
        0.0,
        0.0,
        1.0
      ],
      "name": "ffdf2635b7c24a62b2c3fff90569528b.fbx"
    },
    {
      "children": [
        3,
        6,
        9,
        11,
        13
      ],
      "name": "RootNode"
    },
    {
      "children": [
        4,
        5
      ],
      "matrix": [
        -1.629206793918314e-05,
        -99.99999999999868,
        0.0,
        0.0,
        99.99999999999868,
        -1.629206793918314e-05,
        0.0,
        0.0,
        0.0,
        0.0,
        100.0,
        0.0,
        0.0,
        0.0,
        0.0,
        1.0
      ],
      "name": "foliage"
    },
    {
      "mesh": 0,
      "name": "foliage_baked_flowers_0"
    },
    {
      "mesh": 1,
      "name": "foliage_baked_flowers_0"
    },
    {
      "children": [
        7,
        8
      ],
      "matrix": [
        -1.629206793918314e-05,
        -99.99999999999868,
        0.0,
        0.0,
        99.99999999999868,
        -1.629206793918314e-05,
        0.0,
        0.0,
        0.0,
        0.0,
        100.0,
        0.0,
        0.0,
        0.0,
        0.0,
        1.0
      ],
      "name": "ropes"
    },
    {
      "mesh": 2,
      "name": "ropes_baked_rope_0"
    },
    {
      "mesh": 3,
      "name": "ropes_baked_rope_0"
    },
    {
      "children": [
        10
      ],
      "matrix": [
        -1.629206793918314e-05,
        -99.99999999999868,
        0.0,
        0.0,
        99.99999999999868,
        -1.629206793918314e-05,
        0.0,
        0.0,
        0.0,
        0.0,
        100.0,
        0.0,
        0.0,
        0.0,
        0.0,
        1.0
      ],
      "name": "oreada"
    },
    {
      "mesh": 4,
      "name": "oreada_baked_oreada_0"
    },
    {
      "children": [
        12
      ],
      "matrix": [
        -1.629206793918314e-05,
        -99.99999999999868,
        0.0,
        0.0,
        99.99999999999868,
        -1.629206793918314e-05,
        0.0,
        0.0,
        0.0,
        0.0,
        100.0,
        0.0,
        0.0,
        0.0,
        0.0,
        1.0
      ],
      "name": "tree"
    },
    {
      "mesh": 5,
      "name": "tree_baked_tree_0"
    },
    {
      "children": [
        14
      ],
      "matrix": [
        -1.629206793918314e-05,
        -99.99999999999868,
        0.0,
        0.0,
        99.99999999999868,
        -1.629206793918314e-05,
        0.0,
        0.0,
        0.0,
        0.0,
        100.0,
        0.0,
        0.0,
        0.0,
        0.0,
        1.0
      ],
      "name": "rocks"
    },
    {
      "mesh": 6,
      "name": "rocks_baked_rocks_0"
    }
  ],
  "samplers": [
    {
      "magFilter": 9729,
      "minFilter": 9987,
      "wrapS": 10497,
      "wrapT": 10497
    }
  ],
  "scene": 0,
  "scenes": [
    {
      "name": "Sketchfab_Scene",
      "nodes": [
        0
      ]
    }
  ],
  "textures": [
    {
      "sampler": 0,
      "source": 0
    },
    {
      "sampler": 0,
      "source": 1
    },
    {
      "sampler": 0,
      "source": 2
    },
    {
      "sampler": 0,
      "source": 3
    },
    {
      "sampler": 0,
      "source": 4
    },
    {
      "sampler": 0,
      "source": 5
    }
  ]
}
